<?xml version="1.0" encoding="UTF-8" standalone="no"?>
<!DOCTYPE score-partwise PUBLIC "-//Recordare//DTD MusicXML 4.0 Partwise//EN" "http://www.musicxml.org/dtds/partwise.dtd">
<score-partwise version="4.0">
  <movement-title>A Gust of Fall Wind</movement-title>
  <identification>
    <creator type="composer">Chinese</creator>
    <encoding>
      <software>Finale v27.1 for Mac</software>
      <encoding-date>2022-01-03</encoding-date>
      <supports attribute="new-system" element="print" type="yes" value="yes"/>
      <supports attribute="new-page" element="print" type="yes" value="yes"/>
      <supports element="accidental" type="yes"/>
      <supports element="beam" type="yes"/>
      <supports element="stem" type="yes"/>
    </encoding>
  </identification>
  <defaults>
    <scaling>
      <millimeters>7.0723</millimeters>
      <tenths>40</tenths>
    </scaling>
    <page-layout>
      <page-height>1580</page-height>
      <page-width>1221</page-width>
      <page-margins type="both">
        <left-margin>144</left-margin>
        <right-margin>146</right-margin>
        <top-margin>144</top-margin>
        <bottom-margin>144</bottom-margin>
      </page-margins>
    </page-layout>
    <system-layout>
      <system-margins>
        <left-margin>0</left-margin>
        <right-margin>0</right-margin>
      </system-margins>
      <system-distance>86</system-distance>
      <top-system-distance>34</top-system-distance>
    </system-layout>
    <appearance>
      <line-width type="stem">0.7487</line-width>
      <line-width type="beam">5</line-width>
      <line-width type="staff">0.7487</line-width>
      <line-width type="light barline">0.7487</line-width>
      <line-width type="heavy barline">5</line-width>
      <line-width type="leger">0.7487</line-width>
      <line-width type="ending">0.7487</line-width>
      <line-width type="wedge">0.7487</line-width>
      <line-width type="enclosure">0.7487</line-width>
      <line-width type="tuplet bracket">0.7487</line-width>
      <note-size type="grace">60</note-size>
      <note-size type="cue">60</note-size>
      <distance type="hyphen">120</distance>
      <distance type="beam">7.5</distance>
    </appearance>
    <music-font font-family="EngraverFontSet,engraved" font-size="20"/>
    <word-font font-family="Times New Roman" font-size="10"/>
    <lyric-font font-family="Finale Lyrics" font-size="10"/>
  </defaults>
  <credit page="1">
    <credit-type>title</credit-type>
    <credit-words default-x="610" default-y="1435" font-size="24" font-weight="bold" justify="center" valign="top">A Gust of Fall Wind</credit-words>
  </credit>
  <credit page="1">
    <credit-type>composer</credit-type>
    <credit-words default-x="1075" default-y="1391" font-size="15" justify="right" valign="top">Chinese</credit-words>
  </credit>
  <part-list>
    <score-part id="P1">
      <part-name print-object="no">MusicXML Part</part-name>
      <group>score</group>
      <score-instrument id="P1-I1">
        <instrument-name>ARIA Player</instrument-name>
        <virtual-instrument/>
      </score-instrument>
      <midi-device>ARIA Player</midi-device>
      <midi-instrument id="P1-I1">
        <midi-channel>1</midi-channel>
        <midi-program>1</midi-program>
        <volume>80</volume>
        <pan>0</pan>
      </midi-instrument>
    </score-part>
  </part-list>
  <!--=========================================================-->
  <part id="P1">
    <measure implicit="yes" number="0" width="125">
      <print>
        <system-layout>
          <top-system-distance>121</top-system-distance>
        </system-layout>
        <measure-numbering multiple-rest-always="no" multiple-rest-range="no" system="only-top">system</measure-numbering>
      </print>
      <attributes>
        <divisions>2</divisions>
        <key>
          <fifths>0</fifths>
          <mode>major</mode>
        </key>
        <time>
          <beats>4</beats>
          <beat-type>4</beat-type>
        </time>
        <clef>
          <sign>G</sign>
          <line>2</line>
        </clef>
      </attributes>
      <sound tempo="120">
        <swing>
          <straight/>
        </swing>
      </sound>
      <note default-x="82">
        <pitch>
          <step>C</step>
          <octave>5</octave>
        </pitch>
        <duration>1</duration>
        <voice>1</voice>
        <type>eighth</type>
        <stem default-y="-50">down</stem>
        <lyric default-y="-112" number="2">
          <syllabic>single</syllabic>
          <text font-size="10">A</text>
        </lyric>
      </note>
    </measure>
    <!--=======================================================-->
    <measure number="1" width="274">
      <note default-x="14">
        <pitch>
          <step>C</step>
          <octave>5</octave>
        </pitch>
        <duration>2</duration>
        <voice>1</voice>
        <type>quarter</type>
        <stem default-y="-50">down</stem>
        <lyric default-y="-90" number="1">
          <syllabic>single</syllabic>
          <text font-size="10">Cha</text>
        </lyric>
        <lyric default-y="-112" number="2">
          <syllabic>single</syllabic>
          <text font-size="10">gust</text>
        </lyric>
      </note>
      <note default-x="75">
        <pitch>
          <step>C</step>
          <octave>5</octave>
        </pitch>
        <duration>1</duration>
        <voice>1</voice>
        <type>eighth</type>
        <stem default-y="-55">down</stem>
        <beam number="1">begin</beam>
        <notations>
          <slur bezier-x="14" bezier-y="8" default-x="7" default-y="-5" number="1" placement="above" type="start"/>
        </notations>
        <lyric default-y="-90" justify="left" number="1">
          <syllabic>single</syllabic>
          <text font-size="10">chi</text>
          <extend type="start"/>
        </lyric>
        <lyric default-y="-112" justify="left" number="2">
          <syllabic>single</syllabic>
          <text font-size="10">of</text>
          <extend type="start"/>
        </lyric>
      </note>
      <note default-x="113">
        <pitch>
          <step>A</step>
          <octave>4</octave>
        </pitch>
        <duration>1</duration>
        <voice>1</voice>
        <type>eighth</type>
        <stem default-y="-60">down</stem>
        <beam number="1">end</beam>
        <notations>
          <slur bezier-x="-8" bezier-y="13" default-x="7" default-y="-15" number="1" type="stop"/>
        </notations>
        <lyric number="1">
          <extend type="stop"/>
        </lyric>
        <lyric number="2">
          <extend type="stop"/>
        </lyric>
      </note>
      <note default-x="151">
        <pitch>
          <step>G</step>
          <octave>4</octave>
        </pitch>
        <duration>2</duration>
        <voice>1</voice>
        <type>quarter</type>
        <stem default-y="5">up</stem>
        <notations>
          <slur bezier-x="19" bezier-y="-13" dash-length="7.5" default-x="7" default-y="-43" line-type="dashed" number="1" placement="below" space-length="7.5" type="start"/>
        </notations>
        <lyric default-y="-90" justify="left" number="1">
          <syllabic>single</syllabic>
          <text font-size="10">chiu</text>
          <extend type="start"/>
        </lyric>
        <lyric default-y="-112" justify="left" number="2">
          <syllabic>single</syllabic>
          <text font-size="10">fall</text>
        </lyric>
      </note>
      <note default-x="212">
        <pitch>
          <step>A</step>
          <octave>4</octave>
        </pitch>
        <duration>2</duration>
        <voice>1</voice>
        <type>quarter</type>
        <stem default-y="10">up</stem>
        <notations>
          <slur bezier-x="-15" bezier-y="-17" default-x="7" default-y="-36" number="1" type="stop"/>
        </notations>
        <lyric default-y="-112" number="2">
          <syllabic>single</syllabic>
          <text font-size="10">wind</text>
        </lyric>
        <lyric number="1">
          <extend type="stop"/>
        </lyric>
      </note>
    </measure>
    <!--=======================================================-->
    <measure number="2" width="256">
      <note default-x="13">
        <pitch>
          <step>E</step>
          <octave>4</octave>
        </pitch>
        <duration>2</duration>
        <voice>1</voice>
        <type>quarter</type>
        <stem default-y="-5">up</stem>
        <notations>
          <slur bezier-x="16" bezier-y="-16" dash-length="7.5" default-x="7" default-y="-51" line-type="dashed" number="1" placement="below" space-length="7.5" type="start"/>
        </notations>
        <lyric default-y="-90" justify="left" number="1">
          <syllabic>single</syllabic>
          <text font-size="10">feng</text>
          <extend type="start"/>
        </lyric>
        <lyric default-y="-112" justify="left" number="2">
          <syllabic>begin</syllabic>
          <text font-size="10">blow</text>
        </lyric>
      </note>
      <note default-x="75">
        <pitch>
          <step>D</step>
          <octave>4</octave>
        </pitch>
        <duration>2</duration>
        <voice>1</voice>
        <type>quarter</type>
        <stem default-y="-10">up</stem>
        <notations>
          <slur bezier-x="-18" bezier-y="-13" default-x="7" default-y="-56" number="1" type="stop"/>
        </notations>
        <lyric default-y="-112" number="2">
          <syllabic>end</syllabic>
          <text font-size="10">ing</text>
        </lyric>
        <lyric number="1">
          <extend type="stop"/>
        </lyric>
      </note>
      <note default-x="136">
        <pitch>
          <step>G</step>
          <octave>4</octave>
        </pitch>
        <duration>3</duration>
        <voice>1</voice>
        <type>quarter</type>
        <dot/>
        <stem default-y="5">up</stem>
        <notations>
          <slur bezier-x="19" bezier-y="16" dash-length="7.5" default-x="19" default-y="-5" line-type="dashed" number="1" orientation="over" space-length="7.5" type="start"/>
        </notations>
        <lyric default-y="-90" justify="left" number="1">
          <syllabic>single</syllabic>
          <text font-size="10">han.</text>
          <extend type="start"/>
        </lyric>
        <lyric default-y="-112" justify="left" number="2">
          <syllabic>single</syllabic>
          <text font-size="10">cold;</text>
        </lyric>
      </note>
      <note default-x="217">
        <pitch>
          <step>C</step>
          <octave>5</octave>
        </pitch>
        <duration>1</duration>
        <voice>1</voice>
        <type>eighth</type>
        <stem default-y="-50">down</stem>
        <notations>
          <slur bezier-x="-19" bezier-y="16" default-x="8" default-y="-5" number="1" type="stop"/>
        </notations>
        <lyric default-y="-112" number="2">
          <syllabic>single</syllabic>
          <text font-size="10">A</text>
        </lyric>
        <lyric number="1">
          <extend type="stop"/>
        </lyric>
      </note>
    </measure>
    <!--=======================================================-->
    <measure number="3" width="277">
      <note default-x="14">
        <pitch>
          <step>C</step>
          <octave>5</octave>
        </pitch>
        <duration>2</duration>
        <voice>1</voice>
        <type>quarter</type>
        <stem default-y="-50">down</stem>
        <lyric default-y="-90" number="1">
          <syllabic>single</syllabic>
          <text font-size="10">Pai</text>
        </lyric>
        <lyric default-y="-112" number="2">
          <syllabic>single</syllabic>
          <text font-size="10">fall</text>
        </lyric>
      </note>
      <note default-x="76">
        <pitch>
          <step>C</step>
          <octave>5</octave>
        </pitch>
        <duration>1</duration>
        <voice>1</voice>
        <type>eighth</type>
        <stem default-y="-55">down</stem>
        <beam number="1">begin</beam>
        <notations>
          <slur bezier-x="14" bezier-y="8" default-x="7" default-y="-5" number="1" placement="above" type="start"/>
        </notations>
        <lyric default-y="-90" justify="left" number="1">
          <syllabic>single</syllabic>
          <text font-size="10">Lu</text>
          <extend type="start"/>
        </lyric>
        <lyric default-y="-112" justify="left" number="2">
          <syllabic>single</syllabic>
          <text font-size="10">of</text>
          <extend type="start"/>
        </lyric>
      </note>
      <note default-x="114">
        <pitch>
          <step>A</step>
          <octave>4</octave>
        </pitch>
        <duration>1</duration>
        <voice>1</voice>
        <type>eighth</type>
        <stem default-y="-60">down</stem>
        <beam number="1">end</beam>
        <notations>
          <slur bezier-x="-8" bezier-y="13" default-x="7" default-y="-15" number="1" type="stop"/>
        </notations>
        <lyric number="1">
          <extend type="stop"/>
        </lyric>
        <lyric number="2">
          <extend type="stop"/>
        </lyric>
      </note>
      <note default-x="153">
        <pitch>
          <step>G</step>
          <octave>4</octave>
        </pitch>
        <duration>2</duration>
        <voice>1</voice>
        <type>quarter</type>
        <stem default-y="5">up</stem>
        <lyric default-y="-90" number="1">
          <syllabic>begin</syllabic>
          <text font-size="10">hu</text>
        </lyric>
        <lyric default-y="-112" number="2">
          <syllabic>single</syllabic>
          <text font-size="10">white</text>
        </lyric>
      </note>
      <note default-x="215">
        <pitch>
          <step>A</step>
          <octave>4</octave>
        </pitch>
        <duration>2</duration>
        <voice>1</voice>
        <type>quarter</type>
        <stem default-y="10">up</stem>
        <lyric default-y="-90" number="1">
          <syllabic>end</syllabic>
          <text font-size="10">a</text>
        </lyric>
        <lyric default-y="-112" number="2">
          <syllabic>single</syllabic>
          <text font-size="10">dew</text>
        </lyric>
      </note>
    </measure>
    <!--=======================================================-->
    <measure number="4" width="307">
      <print new-system="yes">
        <system-layout>
          <system-distance>130</system-distance>
        </system-layout>
      </print>
      <note default-x="50">
        <pitch>
          <step>E</step>
          <octave>4</octave>
        </pitch>
        <duration>2</duration>
        <voice>1</voice>
        <type>quarter</type>
        <stem default-y="-5">up</stem>
        <notations>
          <slur bezier-x="17" bezier-y="-17" dash-length="7.5" default-x="8" default-y="-51" line-type="dashed" number="1" placement="below" space-length="7.5" type="start"/>
        </notations>
        <lyric default-y="-90" justify="left" number="1">
          <syllabic>single</syllabic>
          <text font-size="10">cheng</text>
          <extend type="start"/>
        </lyric>
        <lyric default-y="-112" justify="left" number="2">
          <syllabic>single</syllabic>
          <text font-size="10">turned</text>
        </lyric>
      </note>
      <note default-x="115">
        <pitch>
          <step>D</step>
          <octave>4</octave>
        </pitch>
        <duration>2</duration>
        <voice>1</voice>
        <type>quarter</type>
        <stem default-y="-10">up</stem>
        <notations>
          <slur bezier-x="-19" bezier-y="-14" default-x="8" default-y="-56" number="1" type="stop"/>
        </notations>
        <lyric default-y="-112" number="2">
          <syllabic>single</syllabic>
          <text font-size="10">to</text>
        </lyric>
        <lyric number="1">
          <extend type="stop"/>
        </lyric>
      </note>
      <note default-x="181">
        <pitch>
          <step>C</step>
          <octave>4</octave>
        </pitch>
        <duration>3</duration>
        <voice>1</voice>
        <type>quarter</type>
        <dot/>
        <stem default-y="-15">up</stem>
        <lyric default-y="-90" justify="left" number="1">
          <syllabic>single</syllabic>
          <text font-size="10">shuang.</text>
          <extend type="start"/>
        </lyric>
        <lyric default-y="-112" justify="left" number="2">
          <syllabic>single</syllabic>
          <text font-size="10">frost.</text>
        </lyric>
      </note>
      <note default-x="266">
        <pitch>
          <step>C</step>
          <octave>4</octave>
        </pitch>
        <duration>1</duration>
        <voice>1</voice>
        <type>eighth</type>
        <stem default-y="-15">up</stem>
        <lyric default-y="-112" number="2">
          <syllabic>single</syllabic>
          <text font-size="10">The</text>
        </lyric>
        <lyric number="1">
          <extend type="stop"/>
        </lyric>
      </note>
    </measure>
    <!--=======================================================-->
    <measure number="5" width="308">
      <note default-x="16">
        <pitch>
          <step>C</step>
          <octave>4</octave>
        </pitch>
        <duration>2</duration>
        <voice>1</voice>
        <type>quarter</type>
        <stem default-y="-15">up</stem>
        <notations>
          <slur bezier-x="20" bezier-y="-17" dash-length="7.5" default-x="7" default-y="-61" line-type="dashed" number="1" placement="below" space-length="7.5" type="start"/>
        </notations>
        <lyric default-y="-90" justify="left" number="1">
          <syllabic>single</syllabic>
          <text font-size="10">Ku</text>
          <extend type="start"/>
        </lyric>
        <lyric default-y="-112" justify="left" number="2">
          <syllabic>single</syllabic>
          <text font-size="10">cruel</text>
        </lyric>
      </note>
      <note default-x="88">
        <pitch>
          <step>C</step>
          <octave>4</octave>
        </pitch>
        <duration>2</duration>
        <voice>1</voice>
        <type>quarter</type>
        <stem default-y="-15">up</stem>
        <notations>
          <slur bezier-x="-20" bezier-y="-17" default-x="7" default-y="-61" number="1" type="stop"/>
        </notations>
        <lyric default-y="-112" number="2">
          <syllabic>single</syllabic>
          <text font-size="10">frost</text>
        </lyric>
        <lyric number="1">
          <extend type="stop"/>
        </lyric>
      </note>
      <note default-x="144">
        <pitch>
          <step>D</step>
          <octave>4</octave>
        </pitch>
        <duration>1</duration>
        <voice>1</voice>
        <type>eighth</type>
        <stem default-y="-10">up</stem>
        <beam number="1">begin</beam>
        <notations>
          <slur bezier-x="18" bezier-y="-15" dash-length="7.5" default-x="8" default-y="-56" line-type="dashed" number="1" placement="below" space-length="7.5" type="start"/>
        </notations>
        <lyric default-y="-90" justify="left" number="1">
          <syllabic>single</syllabic>
          <text font-size="10">shuang</text>
          <extend type="start"/>
        </lyric>
        <lyric default-y="-112" justify="left" number="2">
          <syllabic>begin</syllabic>
          <text font-size="10">freez</text>
        </lyric>
      </note>
      <note default-x="208">
        <pitch>
          <step>D</step>
          <octave>4</octave>
        </pitch>
        <duration>1</duration>
        <voice>1</voice>
        <type>eighth</type>
        <stem default-y="-10">up</stem>
        <beam number="1">end</beam>
        <notations>
          <slur bezier-x="-18" bezier-y="-15" default-x="7" default-y="-56" number="1" type="stop"/>
        </notations>
        <lyric default-y="-112" number="2">
          <syllabic>end</syllabic>
          <text font-size="10">es</text>
        </lyric>
        <lyric number="1">
          <extend type="stop"/>
        </lyric>
      </note>
      <note default-x="251">
        <pitch>
          <step>E</step>
          <octave>4</octave>
        </pitch>
        <duration>2</duration>
        <voice>1</voice>
        <type>quarter</type>
        <stem default-y="-5">up</stem>
        <lyric default-y="-90" number="1">
          <syllabic>single</syllabic>
          <text font-size="10">ning</text>
        </lyric>
        <lyric default-y="-112" number="2">
          <syllabic>single</syllabic>
          <text font-size="10">each</text>
        </lyric>
      </note>
    </measure>
    <!--=======================================================-->
    <measure number="6" width="317">
      <note default-x="13">
        <pitch>
          <step>G</step>
          <octave>4</octave>
        </pitch>
        <duration>1</duration>
        <voice>1</voice>
        <type>eighth</type>
        <stem default-y="5">up</stem>
        <beam number="1">begin</beam>
        <lyric default-y="-90" justify="left" number="1">
          <syllabic>begin</syllabic>
          <text font-size="10">pi</text>
        </lyric>
        <lyric default-y="-112" justify="left" number="2">
          <syllabic>single</syllabic>
          <text font-size="10">blade</text>
          <extend type="start"/>
        </lyric>
      </note>
      <note default-x="65">
        <pitch>
          <step>A</step>
          <octave>4</octave>
        </pitch>
        <duration>1</duration>
        <voice>1</voice>
        <type>eighth</type>
        <stem default-y="10">up</stem>
        <beam number="1">end</beam>
        <lyric default-y="-90" number="1">
          <syllabic>end</syllabic>
          <text font-size="10">en</text>
        </lyric>
        <lyric number="2">
          <extend type="stop"/>
        </lyric>
      </note>
      <note default-x="104">
        <pitch>
          <step>E</step>
          <octave>4</octave>
        </pitch>
        <duration>2</duration>
        <voice>1</voice>
        <type>quarter</type>
        <stem default-y="-5">up</stem>
        <lyric default-y="-90" number="1">
          <syllabic>begin</syllabic>
          <text font-size="10">ts'</text>
        </lyric>
        <lyric default-y="-112" number="2">
          <syllabic>single</syllabic>
          <text font-size="10">of</text>
        </lyric>
      </note>
      <note default-x="162">
        <pitch>
          <step>D</step>
          <octave>4</octave>
        </pitch>
        <duration>2</duration>
        <voice>1</voice>
        <type>quarter</type>
        <stem default-y="-10">up</stem>
        <lyric default-y="-90" justify="left" number="1">
          <syllabic>end</syllabic>
          <text font-size="10">ao.</text>
          <extend type="start"/>
        </lyric>
        <lyric default-y="-112" justify="left" number="2">
          <syllabic>single</syllabic>
          <text font-size="10">grass,</text>
        </lyric>
      </note>
      <note default-x="233">
        <pitch>
          <step>C</step>
          <octave>5</octave>
        </pitch>
        <duration>1</duration>
        <voice>1</voice>
        <type>eighth</type>
        <stem default-y="-50">down</stem>
        <beam number="1">begin</beam>
        <lyric default-y="-112" number="2">
          <syllabic>single</syllabic>
          <text font-size="10">and</text>
        </lyric>
      </note>
      <note default-x="276">
        <pitch>
          <step>C</step>
          <octave>5</octave>
        </pitch>
        <duration>1</duration>
        <voice>1</voice>
        <type>eighth</type>
        <stem default-y="-50">down</stem>
        <beam number="1">end</beam>
        <lyric default-y="-112" number="2">
          <syllabic>single</syllabic>
          <text font-size="10">the</text>
        </lyric>
        <lyric number="1">
          <extend type="stop"/>
        </lyric>
      </note>
    </measure>
    <!--=======================================================-->
    <measure number="7" width="446">
      <print new-system="yes">
        <system-layout>
          <system-distance>131</system-distance>
        </system-layout>
      </print>
      <note default-x="51">
        <pitch>
          <step>C</step>
          <octave>5</octave>
        </pitch>
        <duration>2</duration>
        <voice>1</voice>
        <type>quarter</type>
        <stem default-y="-50">down</stem>
        <lyric default-y="-90" number="1">
          <syllabic>single</syllabic>
          <text font-size="10">Cha</text>
        </lyric>
        <lyric default-y="-112" number="2">
          <syllabic>begin</syllabic>
          <text font-size="10">grass</text>
        </lyric>
      </note>
      <note default-x="139">
        <pitch>
          <step>C</step>
          <octave>5</octave>
        </pitch>
        <duration>1</duration>
        <voice>1</voice>
        <type>eighth</type>
        <stem default-y="-55">down</stem>
        <beam number="1">begin</beam>
        <notations>
          <slur bezier-x="18" bezier-y="11" dash-length="7.5" default-x="7" default-y="-5" line-type="dashed" number="1" placement="above" space-length="7.5" type="start"/>
        </notations>
        <lyric default-y="-90" justify="left" number="1">
          <syllabic>single</syllabic>
          <text font-size="10">meng</text>
          <extend type="start"/>
        </lyric>
        <lyric default-y="-112" justify="left" number="2">
          <syllabic>middle</syllabic>
          <text font-size="10">hop</text>
        </lyric>
      </note>
      <note default-x="194">
        <pitch>
          <step>A</step>
          <octave>4</octave>
        </pitch>
        <duration>1</duration>
        <voice>1</voice>
        <type>eighth</type>
        <stem default-y="-60">down</stem>
        <beam number="1">end</beam>
        <notations>
          <slur bezier-x="-13" bezier-y="16" default-x="7" default-y="-15" number="1" type="stop"/>
        </notations>
        <lyric default-y="-112" number="2">
          <syllabic>end</syllabic>
          <text font-size="10">per</text>
        </lyric>
        <lyric number="1">
          <extend type="stop"/>
        </lyric>
      </note>
      <note default-x="248">
        <pitch>
          <step>G</step>
          <octave>4</octave>
        </pitch>
        <duration>2</duration>
        <voice>1</voice>
        <type>quarter</type>
        <stem default-y="5">up</stem>
        <lyric default-y="-90" number="1">
          <syllabic>begin</syllabic>
          <text font-size="10">ts'</text>
        </lyric>
        <lyric default-y="-112" number="2">
          <syllabic>single</syllabic>
          <text font-size="10">dies</text>
        </lyric>
      </note>
      <note default-x="336">
        <pitch>
          <step>A</step>
          <octave>4</octave>
        </pitch>
        <duration>1</duration>
        <voice>1</voice>
        <type>eighth</type>
        <stem default-y="10">up</stem>
        <beam number="1">begin</beam>
        <notations>
          <slur bezier-x="15" bezier-y="-13" dash-length="7.5" default-x="8" default-y="-36" line-type="dashed" number="1" placement="below" space-length="7.5" type="start"/>
        </notations>
        <lyric default-y="-90" justify="left" number="1">
          <syllabic>end</syllabic>
          <text font-size="10">ao</text>
          <extend type="start"/>
        </lyric>
        <lyric default-y="-112" justify="left" number="2">
          <syllabic>single</syllabic>
          <text font-size="10">in</text>
        </lyric>
      </note>
      <note default-x="391">
        <pitch>
          <step>A</step>
          <octave>4</octave>
        </pitch>
        <duration>1</duration>
        <voice>1</voice>
        <type>eighth</type>
        <stem default-y="10">up</stem>
        <beam number="1">end</beam>
        <notations>
          <slur bezier-x="-15" bezier-y="-13" default-x="7" default-y="-36" number="1" type="stop"/>
        </notations>
        <lyric default-y="-112" number="2">
          <syllabic>single</syllabic>
          <text font-size="10">his</text>
        </lyric>
        <lyric number="1">
          <extend type="stop"/>
        </lyric>
      </note>
    </measure>
    <!--=======================================================-->
    <measure number="8" width="261">
      <note default-x="13">
        <pitch>
          <step>E</step>
          <octave>4</octave>
        </pitch>
        <duration>2</duration>
        <voice>1</voice>
        <type>quarter</type>
        <stem default-y="-5">up</stem>
        <notations>
          <slur bezier-x="18" bezier-y="-17" dash-length="7.5" default-x="8" default-y="-51" line-type="dashed" number="1" placement="below" space-length="7.5" type="start"/>
        </notations>
        <lyric default-y="-90" justify="left" number="1">
          <syllabic>single</syllabic>
          <text font-size="10">chao</text>
          <extend type="start"/>
        </lyric>
        <lyric default-y="-112" justify="left" number="2">
          <syllabic>begin</syllabic>
          <text font-size="10">grass</text>
        </lyric>
      </note>
      <note default-x="82">
        <pitch>
          <step>D</step>
          <octave>4</octave>
        </pitch>
        <duration>2</duration>
        <voice>1</voice>
        <type>quarter</type>
        <stem default-y="-10">up</stem>
        <notations>
          <slur bezier-x="-20" bezier-y="-15" default-x="7" default-y="-56" number="1" type="stop"/>
        </notations>
        <lyric default-y="-112" number="2">
          <syllabic>end</syllabic>
          <text font-size="10">y</text>
        </lyric>
        <lyric number="1">
          <extend type="stop"/>
        </lyric>
      </note>
      <note default-x="150">
        <pitch>
          <step>C</step>
          <octave>4</octave>
        </pitch>
        <duration>4</duration>
        <tie type="start"/>
        <voice>1</voice>
        <type>half</type>
        <stem default-y="-15">up</stem>
        <notations>
          <tied type="start"/>
        </notations>
        <lyric default-y="-90" justify="left" number="1">
          <syllabic>single</syllabic>
          <text font-size="10">shang.</text>
          <extend type="start"/>
        </lyric>
        <lyric default-y="-112" justify="left" number="2">
          <syllabic>single</syllabic>
          <text font-size="10">nest.</text>
          <extend type="start"/>
        </lyric>
      </note>
    </measure>
    <!--=======================================================-->
    <measure number="9" width="225">
      <note default-x="16">
        <pitch>
          <step>C</step>
          <octave>4</octave>
        </pitch>
        <duration>4</duration>
        <tie type="stop"/>
        <voice>1</voice>
        <type>half</type>
        <stem default-y="-15">up</stem>
        <notations>
          <tied type="stop"/>
        </notations>
        <lyric number="1">
          <extend type="stop"/>
        </lyric>
        <lyric number="2">
          <extend type="stop"/>
        </lyric>
      </note>
      <note default-x="115">
        <rest/>
        <duration>4</duration>
        <voice>1</voice>
        <type>half</type>
      </note>
      <barline location="right">
        <bar-style>light-heavy</bar-style>
      </barline>
    </measure>
  </part>
  <!--=========================================================-->
</score-partwise>
