<?xml version="1.0" encoding="UTF-8" standalone="no"?>
<!DOCTYPE score-partwise PUBLIC "-//Recordare//DTD MusicXML 4.0 Partwise//EN" "http://www.musicxml.org/dtds/partwise.dtd">
<score-partwise version="4.0">
  <movement-title>A Yankee Ship</movement-title>
  <identification>
    <creator type="composer">American</creator>
    <encoding>
      <software>Finale v27.1 for Mac</software>
      <encoding-date>2022-01-03</encoding-date>
      <supports attribute="new-system" element="print" type="yes" value="yes"/>
      <supports attribute="new-page" element="print" type="yes" value="yes"/>
      <supports element="accidental" type="yes"/>
      <supports element="beam" type="yes"/>
      <supports element="stem" type="yes"/>
    </encoding>
  </identification>
  <defaults>
    <scaling>
      <millimeters>7.0723</millimeters>
      <tenths>40</tenths>
    </scaling>
    <page-layout>
      <page-height>1580</page-height>
      <page-width>1221</page-width>
      <page-margins type="both">
        <left-margin>144</left-margin>
        <right-margin>146</right-margin>
        <top-margin>145</top-margin>
        <bottom-margin>147</bottom-margin>
      </page-margins>
    </page-layout>
    <system-layout>
      <system-margins>
        <left-margin>0</left-margin>
        <right-margin>0</right-margin>
      </system-margins>
      <system-distance>86</system-distance>
      <top-system-distance>34</top-system-distance>
    </system-layout>
    <appearance>
      <line-width type="stem">0.7487</line-width>
      <line-width type="beam">5</line-width>
      <line-width type="staff">0.7487</line-width>
      <line-width type="light barline">0.7487</line-width>
      <line-width type="heavy barline">5</line-width>
      <line-width type="leger">0.7487</line-width>
      <line-width type="ending">0.7487</line-width>
      <line-width type="wedge">0.7487</line-width>
      <line-width type="enclosure">0.7487</line-width>
      <line-width type="tuplet bracket">0.7487</line-width>
      <note-size type="grace">60</note-size>
      <note-size type="cue">60</note-size>
      <distance type="hyphen">120</distance>
      <distance type="beam">7.5</distance>
    </appearance>
    <music-font font-family="EngraverFontSet,engraved" font-size="20"/>
    <word-font font-family="Times New Roman" font-size="10"/>
    <lyric-font font-family="Finale Lyrics" font-size="10"/>
  </defaults>
  <credit page="1">
    <credit-type>title</credit-type>
    <credit-words default-x="610" default-y="1433" font-size="24" font-weight="bold" justify="center" valign="top">A Yankee Ship</credit-words>
  </credit>
  <credit page="1">
    <credit-type>composer</credit-type>
    <credit-words default-x="1075" default-y="1389" font-size="14" justify="right" valign="top">American</credit-words>
  </credit>
  <credit page="1">
    <credit-words default-x="435" default-y="795" font-size="12" font-weight="bold" underline="1" valign="top">Additional Verses:</credit-words>
    <credit-words font-size="12" font-weight="normal" underline="0" xml:space="preserve">
3. What do think they had for dinner?
</credit-words>
    <credit-words font-size="12" font-style="italic">Blow boys, blow!</credit-words>
    <credit-words font-size="12" font-style="normal" xml:space="preserve">
'Twas pickled eels' feet and bullock liver.
</credit-words>
    <credit-words font-size="12" font-style="italic">Blow, my bully boys blow!</credit-words>
    <credit-words font-size="12" font-style="normal" xml:space="preserve">

4. She sailed away for London city,
</credit-words>
    <credit-words font-size="12" font-style="italic">Blow boys, blow!</credit-words>
    <credit-words font-size="12" font-style="normal" xml:space="preserve">
She never got there, more's the pity.
</credit-words>
    <credit-words font-size="12" font-style="italic">Blow, my bully boys blow!</credit-words>
  </credit>
  <part-list>
    <score-part id="P1">
      <part-name print-object="no">MusicXML Part</part-name>
      <group>score</group>
      <score-instrument id="P1-I1">
        <instrument-name>ARIA Player</instrument-name>
        <virtual-instrument/>
      </score-instrument>
      <midi-device>ARIA Player</midi-device>
      <midi-instrument id="P1-I1">
        <midi-channel>1</midi-channel>
        <midi-program>1</midi-program>
        <volume>80</volume>
        <pan>0</pan>
      </midi-instrument>
    </score-part>
  </part-list>
  <!--=========================================================-->
  <part id="P1">
    <measure implicit="yes" number="0" width="155">
      <print>
        <system-layout>
          <top-system-distance>174</top-system-distance>
        </system-layout>
        <measure-numbering multiple-rest-always="no" multiple-rest-range="no" system="only-top">system</measure-numbering>
      </print>
      <attributes>
        <divisions>2</divisions>
        <key>
          <fifths>-1</fifths>
          <mode>major</mode>
        </key>
        <time>
          <beats>4</beats>
          <beat-type>4</beat-type>
        </time>
        <clef>
          <sign>G</sign>
          <line>2</line>
        </clef>
      </attributes>
      <sound tempo="120">
        <swing>
          <straight/>
        </swing>
      </sound>
      <direction placement="above">
        <direction-type>
          <words default-y="40" font-weight="bold">Call</words>
        </direction-type>
      </direction>
      <note default-x="109">
        <pitch>
          <step>F</step>
          <octave>4</octave>
        </pitch>
        <duration>2</duration>
        <voice>1</voice>
        <type>quarter</type>
        <stem default-y="0">up</stem>
        <lyric default-y="-80" number="1">
          <syllabic>single</syllabic>
          <text font-size="10">1.</text>
          <elision> </elision>
          <syllabic>single</syllabic>
          <text font-size="10">A</text>
        </lyric>
        <lyric default-y="-106" number="2">
          <syllabic>single</syllabic>
          <text font-size="10">2.</text>
          <elision> </elision>
          <syllabic>single</syllabic>
          <text font-size="10">And</text>
        </lyric>
      </note>
    </measure>
    <!--=======================================================-->
    <measure number="1" width="236">
      <note default-x="13">
        <pitch>
          <step>A</step>
          <octave>4</octave>
        </pitch>
        <duration>2</duration>
        <voice>1</voice>
        <type>quarter</type>
        <stem default-y="10">up</stem>
        <lyric default-y="-80" number="1">
          <syllabic>begin</syllabic>
          <text font-size="10">Yan</text>
        </lyric>
        <lyric default-y="-106" number="2">
          <syllabic>single</syllabic>
          <text font-size="10">who</text>
        </lyric>
      </note>
      <note default-x="69">
        <pitch>
          <step>A</step>
          <octave>4</octave>
        </pitch>
        <duration>2</duration>
        <voice>1</voice>
        <type>quarter</type>
        <stem default-y="10">up</stem>
        <lyric default-y="-80" number="1">
          <syllabic>end</syllabic>
          <text font-size="10">kee</text>
        </lyric>
        <lyric default-y="-106" number="2">
          <syllabic>single</syllabic>
          <text font-size="10">d'you</text>
        </lyric>
      </note>
      <note default-x="125">
        <pitch>
          <step>A</step>
          <octave>4</octave>
        </pitch>
        <duration>2</duration>
        <voice>1</voice>
        <type>quarter</type>
        <stem default-y="10">up</stem>
        <lyric default-y="-80" number="1">
          <syllabic>single</syllabic>
          <text font-size="10">ship</text>
        </lyric>
        <lyric default-y="-106" number="2">
          <syllabic>single</syllabic>
          <text font-size="10">think</text>
        </lyric>
      </note>
      <note default-x="179">
        <pitch>
          <step>F</step>
          <octave>4</octave>
        </pitch>
        <duration>2</duration>
        <voice>1</voice>
        <type>quarter</type>
        <stem default-y="0">up</stem>
        <lyric default-y="-80" number="1">
          <syllabic>single</syllabic>
          <text font-size="10">came</text>
        </lyric>
        <lyric default-y="-106" number="2">
          <syllabic>single</syllabic>
          <text font-size="10">was</text>
        </lyric>
      </note>
    </measure>
    <!--=======================================================-->
    <measure number="2" width="212">
      <note default-x="13">
        <pitch>
          <step>A</step>
          <octave>4</octave>
        </pitch>
        <duration>3</duration>
        <voice>1</voice>
        <type>quarter</type>
        <dot/>
        <stem default-y="10">up</stem>
        <lyric default-y="-80" number="1">
          <syllabic>single</syllabic>
          <text font-size="10">down</text>
        </lyric>
        <lyric default-y="-106" number="2">
          <syllabic>begin</syllabic>
          <text font-size="10">cap</text>
        </lyric>
      </note>
      <note default-x="78">
        <pitch>
          <step>G</step>
          <octave>4</octave>
        </pitch>
        <duration>1</duration>
        <voice>1</voice>
        <type>eighth</type>
        <stem default-y="5">up</stem>
        <lyric default-y="-80" number="1">
          <syllabic>single</syllabic>
          <text font-size="10">the</text>
        </lyric>
        <lyric default-y="-106" number="2">
          <syllabic>end</syllabic>
          <text font-size="10">tain</text>
        </lyric>
      </note>
      <note default-x="113">
        <pitch>
          <step>G</step>
          <octave>4</octave>
        </pitch>
        <duration>1</duration>
        <voice>1</voice>
        <type>eighth</type>
        <stem default-y="5">up</stem>
        <lyric default-y="-80" number="1">
          <syllabic>begin</syllabic>
          <text font-size="10">riv</text>
        </lyric>
        <lyric default-y="-106" number="2">
          <syllabic>single</syllabic>
          <text font-size="10">of</text>
        </lyric>
      </note>
      <note default-x="147">
        <pitch>
          <step>F</step>
          <octave>4</octave>
        </pitch>
        <duration>3</duration>
        <voice>1</voice>
        <type>quarter</type>
        <dot/>
        <stem default-y="0">up</stem>
        <lyric default-y="-80" number="1">
          <syllabic>end</syllabic>
          <text font-size="10">er.</text>
        </lyric>
        <lyric default-y="-106" number="2">
          <syllabic>single</syllabic>
          <text font-size="10">her?</text>
        </lyric>
      </note>
    </measure>
    <!--=======================================================-->
    <measure number="3" width="154">
      <direction placement="above">
        <direction-type>
          <words default-y="40" font-weight="bold">Response</words>
        </direction-type>
      </direction>
      <note default-x="14">
        <pitch>
          <step>G</step>
          <octave>4</octave>
        </pitch>
        <duration>4</duration>
        <voice>1</voice>
        <type>half</type>
        <stem default-y="5">up</stem>
        <lyric default-y="-80" number="1">
          <syllabic>single</syllabic>
          <text font-size="10" font-style="italic">Blow</text>
        </lyric>
        <lyric default-y="-106" number="2">
          <syllabic>single</syllabic>
          <text font-size="10" font-style="italic">Blow</text>
        </lyric>
      </note>
      <note default-x="84">
        <pitch>
          <step>A</step>
          <octave>4</octave>
        </pitch>
        <duration>4</duration>
        <voice>1</voice>
        <type>half</type>
        <stem default-y="10">up</stem>
        <lyric default-y="-80" number="1">
          <syllabic>single</syllabic>
          <text font-size="10" font-style="italic">boys,</text>
        </lyric>
        <lyric default-y="-106" number="2">
          <syllabic>single</syllabic>
          <text font-size="10" font-style="italic">boys,</text>
        </lyric>
      </note>
    </measure>
    <!--=======================================================-->
    <measure number="4" width="174">
      <note default-x="14">
        <pitch>
          <step>B</step>
          <alter>-1</alter>
          <octave>4</octave>
        </pitch>
        <duration>4</duration>
        <voice>1</voice>
        <type>half</type>
        <stem default-y="-55">down</stem>
        <lyric default-y="-80" number="1">
          <syllabic>single</syllabic>
          <text font-size="10" font-style="italic">blow!</text>
        </lyric>
        <lyric default-y="-106" number="2">
          <syllabic>single</syllabic>
          <text font-size="10" font-style="italic">blow!</text>
        </lyric>
      </note>
      <note default-x="86">
        <rest/>
        <duration>2</duration>
        <voice>1</voice>
        <type>quarter</type>
      </note>
      <direction placement="above">
        <direction-type>
          <words default-y="38" font-weight="bold">Call</words>
        </direction-type>
      </direction>
      <note default-x="129">
        <pitch>
          <step>D</step>
          <octave>5</octave>
        </pitch>
        <duration>2</duration>
        <voice>1</voice>
        <type>quarter</type>
        <stem default-y="-45">down</stem>
        <lyric default-y="-80" number="1">
          <syllabic>single</syllabic>
          <text font-size="10">Her</text>
        </lyric>
        <lyric default-y="-106" number="2">
          <syllabic>single</syllabic>
          <text font-size="10">Why,</text>
        </lyric>
      </note>
    </measure>
    <!--=======================================================-->
    <measure number="5" width="286">
      <print new-system="yes">
        <system-layout>
          <system-distance>162</system-distance>
        </system-layout>
      </print>
      <note default-x="79">
        <pitch>
          <step>C</step>
          <octave>5</octave>
        </pitch>
        <duration>2</duration>
        <voice>1</voice>
        <type>quarter</type>
        <stem default-y="-50">down</stem>
        <lyric default-y="-80" number="1">
          <syllabic>single</syllabic>
          <text font-size="10">masts</text>
        </lyric>
        <lyric default-y="-106" number="2">
          <syllabic>begin</syllabic>
          <text font-size="10">Bul</text>
        </lyric>
      </note>
      <note default-x="131">
        <pitch>
          <step>A</step>
          <octave>4</octave>
        </pitch>
        <duration>2</duration>
        <voice>1</voice>
        <type>quarter</type>
        <stem default-y="10">up</stem>
        <lyric default-y="-80" number="1">
          <syllabic>single</syllabic>
          <text font-size="10">did</text>
        </lyric>
        <lyric default-y="-106" number="2">
          <syllabic>end</syllabic>
          <text font-size="10">ly</text>
        </lyric>
      </note>
      <note default-x="183">
        <pitch>
          <step>B</step>
          <alter>-1</alter>
          <octave>4</octave>
        </pitch>
        <duration>2</duration>
        <voice>1</voice>
        <type>quarter</type>
        <stem default-y="-55">down</stem>
        <lyric default-y="-80" number="1">
          <syllabic>single</syllabic>
          <text font-size="10">bend,</text>
        </lyric>
        <lyric default-y="-106" number="2">
          <syllabic>single</syllabic>
          <text font-size="10">Hayes</text>
        </lyric>
      </note>
      <note default-x="234">
        <pitch>
          <step>G</step>
          <octave>4</octave>
        </pitch>
        <duration>2</duration>
        <voice>1</voice>
        <type>quarter</type>
        <stem default-y="5">up</stem>
        <lyric default-y="-80" number="1">
          <syllabic>single</syllabic>
          <text font-size="10">her</text>
        </lyric>
        <lyric default-y="-106" number="2">
          <syllabic>single</syllabic>
          <text font-size="10">was</text>
        </lyric>
      </note>
    </measure>
    <!--=======================================================-->
    <measure number="6" width="222">
      <note default-x="13">
        <pitch>
          <step>F</step>
          <octave>4</octave>
        </pitch>
        <duration>3</duration>
        <voice>1</voice>
        <type>quarter</type>
        <dot/>
        <stem default-y="0">up</stem>
        <lyric default-y="-80" number="1">
          <syllabic>single</syllabic>
          <text font-size="10">sails</text>
        </lyric>
        <lyric default-y="-106" number="2">
          <syllabic>begin</syllabic>
          <text font-size="10">cap</text>
        </lyric>
      </note>
      <note default-x="79">
        <pitch>
          <step>C</step>
          <octave>4</octave>
        </pitch>
        <duration>1</duration>
        <voice>1</voice>
        <type>eighth</type>
        <stem default-y="-15">up</stem>
        <lyric default-y="-80" number="1">
          <syllabic>single</syllabic>
          <text font-size="10">did</text>
        </lyric>
        <lyric default-y="-106" number="2">
          <syllabic>end</syllabic>
          <text font-size="10">tain</text>
        </lyric>
      </note>
      <note default-x="118">
        <pitch>
          <step>F</step>
          <octave>4</octave>
        </pitch>
        <duration>1</duration>
        <voice>1</voice>
        <type>eighth</type>
        <stem default-y="0">up</stem>
        <lyric default-y="-80" number="1">
          <syllabic>begin</syllabic>
          <text font-size="10">shiv</text>
        </lyric>
        <lyric default-y="-106" number="2">
          <syllabic>single</syllabic>
          <text font-size="10">of</text>
        </lyric>
      </note>
      <note default-x="156">
        <pitch>
          <step>G</step>
          <octave>4</octave>
        </pitch>
        <duration>3</duration>
        <voice>1</voice>
        <type>quarter</type>
        <dot/>
        <stem default-y="5">up</stem>
        <lyric default-y="-80" number="1">
          <syllabic>end</syllabic>
          <text font-size="10">er.</text>
        </lyric>
        <lyric default-y="-106" number="2">
          <syllabic>single</syllabic>
          <text font-size="10">her.</text>
        </lyric>
      </note>
    </measure>
    <!--=======================================================-->
    <measure number="7" width="234">
      <direction placement="above">
        <direction-type>
          <words default-y="28" font-weight="bold">Response</words>
        </direction-type>
      </direction>
      <note default-x="14">
        <pitch>
          <step>A</step>
          <octave>4</octave>
        </pitch>
        <duration>2</duration>
        <voice>1</voice>
        <type>quarter</type>
        <stem default-y="10">up</stem>
        <lyric default-y="-80" number="1">
          <syllabic>single</syllabic>
          <text font-size="10" font-style="italic">Blow,</text>
        </lyric>
        <lyric default-y="-106" number="2">
          <syllabic>single</syllabic>
          <text font-size="10" font-style="italic">Blow,</text>
        </lyric>
      </note>
      <note default-x="66">
        <pitch>
          <step>C</step>
          <octave>5</octave>
        </pitch>
        <duration>2</duration>
        <voice>1</voice>
        <type>quarter</type>
        <stem default-y="-50">down</stem>
        <lyric default-y="-80" number="1">
          <syllabic>single</syllabic>
          <text font-size="10" font-style="italic">my</text>
        </lyric>
        <lyric default-y="-106" number="2">
          <syllabic>single</syllabic>
          <text font-size="10" font-style="italic">my</text>
        </lyric>
      </note>
      <note default-x="116">
        <pitch>
          <step>G</step>
          <octave>4</octave>
        </pitch>
        <duration>1</duration>
        <voice>1</voice>
        <type>eighth</type>
        <stem default-y="5">up</stem>
        <beam number="1">begin</beam>
        <lyric default-y="-80" number="1">
          <syllabic>begin</syllabic>
          <text font-size="10" font-style="italic">bul</text>
        </lyric>
        <lyric default-y="-106" number="2">
          <syllabic>begin</syllabic>
          <text font-size="10" font-style="italic">bul</text>
        </lyric>
      </note>
      <note default-x="149">
        <pitch>
          <step>G</step>
          <octave>4</octave>
        </pitch>
        <duration>1</duration>
        <voice>1</voice>
        <type>eighth</type>
        <stem default-y="5">up</stem>
        <beam number="1">end</beam>
        <lyric default-y="-80" number="1">
          <syllabic>end</syllabic>
          <text font-size="10" font-style="italic">ly</text>
        </lyric>
        <lyric default-y="-106" number="2">
          <syllabic>end</syllabic>
          <text font-size="10" font-style="italic">ly</text>
        </lyric>
      </note>
      <note default-x="183">
        <pitch>
          <step>C</step>
          <octave>5</octave>
        </pitch>
        <duration>2</duration>
        <voice>1</voice>
        <type>quarter</type>
        <stem default-y="-50">down</stem>
        <lyric default-y="-80" number="1">
          <syllabic>single</syllabic>
          <text font-size="10" font-style="italic">boys,</text>
        </lyric>
        <lyric default-y="-106" number="2">
          <syllabic>single</syllabic>
          <text font-size="10" font-style="italic">boys,</text>
        </lyric>
      </note>
    </measure>
    <!--=======================================================-->
    <measure number="8" width="189">
      <note default-x="13">
        <pitch>
          <step>F</step>
          <octave>4</octave>
        </pitch>
        <duration>4</duration>
        <voice>1</voice>
        <type>half</type>
        <stem default-y="0">up</stem>
        <lyric default-y="-80" number="1">
          <syllabic>single</syllabic>
          <text font-size="10" font-style="italic">blow!</text>
        </lyric>
        <lyric default-y="-106" number="2">
          <syllabic>single</syllabic>
          <text font-size="10" font-style="italic">blow!</text>
        </lyric>
      </note>
      <note default-x="84">
        <rest/>
        <duration>2</duration>
        <voice>1</voice>
        <type>quarter</type>
      </note>
      <barline location="right">
        <bar-style>light-heavy</bar-style>
        <repeat direction="backward" winged="none"/>
      </barline>
    </measure>
  </part>
  <!--=========================================================-->
</score-partwise>
